<svg width="5" height="8" viewBox="0 0 5 8" fill="none" xmlns="http://www.w3.org/2000/svg">
<path d="M4.57143 3.99774C4.57143 3.91944 4.55646 3.84717 4.52652 3.78091C4.49659 3.71466 4.45168 3.65142 4.39181 3.59119L0.893629 0.149068C0.794836 0.0496894 0.672093 0 0.5254 0C0.429601 0 0.341285 0.0240918 0.260455 0.0722755C0.179624 0.117448 0.115259 0.179183 0.067359 0.257482C0.022453 0.33578 0 0.424619 0 0.523998C0 0.665537 0.0538872 0.79202 0.161662 0.903444L3.31406 3.99774L0.161662 7.09204C0.0538872 7.20346 0 7.33145 0 7.476C0 7.57237 0.022453 7.6597 0.067359 7.738C0.115259 7.81931 0.179624 7.88255 0.260455 7.92772C0.341285 7.97591 0.429601 8 0.5254 8C0.672093 8 0.794836 7.9488 0.893629 7.84641L4.39181 4.40429C4.45168 4.34406 4.49659 4.28082 4.52652 4.21457C4.55646 4.14832 4.57143 4.07604 4.57143 3.99774Z" fill="#131313"/>
</svg>
