<svg width="19" height="16" viewBox="0 0 19 16" fill="none" xmlns="http://www.w3.org/2000/svg">
<path d="M0 8C0 8.29297 0.126953 8.57617 0.351562 8.79102L6.78711 15.2266C7.02148 15.4512 7.28516 15.5586 7.54883 15.5586C8.16406 15.5586 8.60352 15.1191 8.60352 14.5332C8.60352 14.2305 8.48633 13.9668 8.29102 13.7812L6.10352 11.5645L3.21289 8.92773L5.49805 9.06445H17.373C18.0078 9.06445 18.457 8.625 18.457 8C18.457 7.36523 18.0078 6.93555 17.373 6.93555H5.49805L3.22266 7.07227L6.10352 4.43555L8.29102 2.21875C8.48633 2.02344 8.60352 1.75977 8.60352 1.45703C8.60352 0.871094 8.16406 0.441406 7.54883 0.441406C7.28516 0.441406 7.02148 0.539062 6.76758 0.783203L0.351562 7.20898C0.126953 7.41406 0 7.70703 0 8Z" fill="black"/>
</svg>
