<svg width="108" height="65" viewBox="0 0 108 65" fill="none" xmlns="http://www.w3.org/2000/svg">
<path fillRule="evenodd" clipRule="evenodd" d="M8.47304 31.202C8.47304 29.5452 9.81618 28.202 11.473 28.202H20.7246C22.3814 28.202 23.7246 29.5452 23.7246 31.202V35.5869H30.53C30.5122 35.4151 30.503 35.2408 30.503 35.0643V33.202C30.503 30.4406 32.7416 28.202 35.503 28.202H40.7545C43.516 28.202 45.7545 30.4406 45.7545 33.202V35.0643C45.7545 35.2408 45.7454 35.4151 45.7276 35.5869H51.2276C52.8845 35.5869 54.2276 36.93 54.2276 38.5869V61.3953C54.2276 63.0522 52.8845 64.3953 51.2276 64.3953H3C1.34315 64.3953 0 63.0522 0 61.3953V38.5869C0 36.93 1.34315 35.5869 3 35.5869H8.47304V31.202Z" fill="#A2A2A2"/>
<path fillRule="evenodd" clipRule="evenodd" d="M73.3832 8.17805C74.5748 7.0268 76.474 7.05948 77.6252 8.25103L84.0536 14.9044C85.2048 16.096 85.1721 17.9952 83.9806 19.1464L81.2632 21.7718L85.9732 26.6467L88.6905 24.0213C89.8821 22.87 91.7813 22.9027 92.9325 24.0942L99.3608 30.7476C100.512 31.9392 100.479 33.8384 99.2878 34.9896L96.5705 37.615L100.373 41.5511C101.525 42.7427 101.492 44.6419 100.3 45.7931L83.8974 61.6413C82.7058 62.7925 80.8066 62.7599 79.6554 61.5683L46.145 26.8846C44.9937 25.6931 45.0264 23.7939 46.2179 22.6426L62.621 6.79444C63.8125 5.64319 65.7118 5.67587 66.863 6.86742L70.6659 10.8035L73.3832 8.17805Z" fill="#D7D7D7"/>
<rect x="23" y="52" width="9" height="2" rx="1" fill="#666666"/>
<rect x="22" y="44" width="4" height="2" rx="1" transform="rotate(90 22 44)" fill="#666666"/>
<rect x="35" y="44" width="4" height="2" rx="1" transform="rotate(90 35 44)" fill="#666666"/>
<rect x="69.4141" y="31.7782" width="9" height="2" rx="1" transform="rotate(45 69.4141 31.7782)" fill="#A2A2A2"/>
<rect x="74.3643" y="25.4142" width="4" height="2" rx="1" transform="rotate(135 74.3643 25.4142)" fill="#A2A2A2"/>
<rect x="83.5566" y="34.6066" width="4" height="2" rx="1" transform="rotate(135 83.5566 34.6066)" fill="#A2A2A2"/>
</svg>
