<svg width="12" height="12" viewBox="0 0 12 12" fill="none" xmlns="http://www.w3.org/2000/svg">
<path d="M0.198751 11.8032C0.289529 11.889 0.392916 11.947 0.508912 11.9773C0.624907 12.0076 0.740902 12.0076 0.856897 11.9773C0.972892 11.947 1.07376 11.889 1.15949 11.8032L6.00103 6.95773L10.8426 11.8032C10.9283 11.889 11.0292 11.947 11.1452 11.9773C11.2612 12.0076 11.3772 12.0076 11.4932 11.9773C11.6142 11.9521 11.7176 11.894 11.8033 11.8032C11.889 11.7174 11.9445 11.6164 11.9697 11.5003C12 11.3842 12 11.2681 11.9697 11.1521C11.9445 11.036 11.889 10.935 11.8033 10.8492L6.96177 5.99621L11.8033 1.15079C11.889 1.06498 11.947 0.964038 11.9773 0.84795C12.0076 0.731861 12.0076 0.615773 11.9773 0.499685C11.947 0.383596 11.889 0.28265 11.8033 0.196845C11.7125 0.105994 11.6091 0.0479495 11.4932 0.0227129C11.3772 -0.00757098 11.2612 -0.00757098 11.1452 0.0227129C11.0292 0.0479495 10.9283 0.105994 10.8426 0.196845L6.00103 5.04227L1.15949 0.196845C1.07376 0.105994 0.970371 0.0479495 0.849332 0.0227129C0.733337 -0.00757098 0.617342 -0.00757098 0.501347 0.0227129C0.385352 0.0479495 0.284486 0.105994 0.198751 0.196845C0.113015 0.28265 0.0550175 0.383596 0.0247579 0.499685C-0.000458479 0.615773 -0.000458479 0.731861 0.0247579 0.84795C0.0550175 0.964038 0.113015 1.06498 0.198751 1.15079L5.04029 5.99621L0.198751 10.8492C0.113015 10.935 0.0550175 11.036 0.0247579 11.1521C-0.00550175 11.2681 -0.00802338 11.3842 0.017193 11.5003C0.0474526 11.6164 0.107972 11.7174 0.198751 11.8032Z" fill="white"/>
</svg>
