<svg width="13" height="12" viewBox="0 0 13 12" fill="none" xmlns="http://www.w3.org/2000/svg">
<path d="M0.698751 11.8032C0.789529 11.889 0.892916 11.947 1.00891 11.9773C1.12491 12.0076 1.2409 12.0076 1.3569 11.9773C1.47289 11.947 1.57376 11.889 1.65949 11.8032L6.50103 6.95773L11.3426 11.8032C11.4283 11.889 11.5292 11.947 11.6452 11.9773C11.7612 12.0076 11.8772 12.0076 11.9932 11.9773C12.1142 11.9521 12.2176 11.894 12.3033 11.8032C12.389 11.7174 12.4445 11.6164 12.4697 11.5003C12.5 11.3842 12.5 11.2681 12.4697 11.1521C12.4445 11.036 12.389 10.935 12.3033 10.8492L7.46177 5.99621L12.3033 1.15079C12.389 1.06498 12.447 0.964038 12.4773 0.84795C12.5076 0.731861 12.5076 0.615773 12.4773 0.499685C12.447 0.383596 12.389 0.28265 12.3033 0.196845C12.2125 0.105994 12.1091 0.0479495 11.9932 0.0227129C11.8772 -0.00757098 11.7612 -0.00757098 11.6452 0.0227129C11.5292 0.0479495 11.4283 0.105994 11.3426 0.196845L6.50103 5.04227L1.65949 0.196845C1.57376 0.105994 1.47037 0.0479495 1.34933 0.0227129C1.23334 -0.00757098 1.11734 -0.00757098 1.00135 0.0227129C0.885352 0.0479495 0.784486 0.105994 0.698751 0.196845C0.613015 0.28265 0.555017 0.383596 0.524758 0.499685C0.499542 0.615773 0.499542 0.731861 0.524758 0.84795C0.555017 0.964038 0.613015 1.06498 0.698751 1.15079L5.54029 5.99621L0.698751 10.8492C0.613015 10.935 0.555017 11.036 0.524758 11.1521C0.494498 11.2681 0.491977 11.3842 0.517193 11.5003C0.547453 11.6164 0.607972 11.7174 0.698751 11.8032Z" fill="#131313"/>
</svg>
