<svg width="19" height="18" viewBox="0 0 19 18" fill="none" xmlns="http://www.w3.org/2000/svg">
<path d="M8.10104 14.5629C9.69742 14.5629 11.1695 14.0516 12.374 13.1994L16.9051 17.6875C17.1154 17.8958 17.3926 18 17.6889 18C18.3103 18 18.75 17.5266 18.75 16.9206C18.75 16.6365 18.6544 16.3619 18.4441 16.1631L13.9417 11.6938C14.8881 10.4629 15.4521 8.93845 15.4521 7.28143C15.4521 3.27617 12.1446 0 8.10104 0C4.06705 0 0.75 3.2667 0.75 7.28143C0.75 11.2867 4.05749 14.5629 8.10104 14.5629ZM8.10104 12.9911C4.9465 12.9911 2.33683 10.4061 2.33683 7.28143C2.33683 4.15676 4.9465 1.5718 8.10104 1.5718C11.2556 1.5718 13.8652 4.15676 13.8652 7.28143C13.8652 10.4061 11.2556 12.9911 8.10104 12.9911Z" fill="#131313"/>
</svg>
