<svg width="19" height="18" viewBox="0 0 19 18" fill="none" xmlns="http://www.w3.org/2000/svg">
<path d="M9.5 9C10.6935 9 11.8381 8.52589 12.682 7.68198C13.5259 6.83807 14 5.69347 14 4.5C14 3.30653 13.5259 2.16193 12.682 1.31802C11.8381 0.474106 10.6935 0 9.5 0C8.30653 0 7.16193 0.474106 6.31802 1.31802C5.47411 2.16193 5 3.30653 5 4.5C5 5.69347 5.47411 6.83807 6.31802 7.68198C7.16193 8.52589 8.30653 9 9.5 9ZM12.5 4.5C12.5 5.29565 12.1839 6.05871 11.6213 6.62132C11.0587 7.18393 10.2956 7.5 9.5 7.5C8.70435 7.5 7.94129 7.18393 7.37868 6.62132C6.81607 6.05871 6.5 5.29565 6.5 4.5C6.5 3.70435 6.81607 2.94129 7.37868 2.37868C7.94129 1.81607 8.70435 1.5 9.5 1.5C10.2956 1.5 11.0587 1.81607 11.6213 2.37868C12.1839 2.94129 12.5 3.70435 12.5 4.5ZM18.5 16.5C18.5 18 17 18 17 18H2C2 18 0.5 18 0.5 16.5C0.5 15 2 10.5 9.5 10.5C17 10.5 18.5 15 18.5 16.5ZM17 16.494C16.9985 16.125 16.769 15.015 15.752 13.998C14.774 13.02 12.9335 12 9.5 12C6.065 12 4.226 13.02 3.248 13.998C2.231 15.015 2.003 16.125 2 16.494H17Z" fill="#131313"/>
</svg>
