<svg width="482" height="449" viewBox="0 0 482 449" fill="none" xmlns="http://www.w3.org/2000/svg">
<path fillRule="evenodd" clipRule="evenodd" d="M381 96C381.552 96 382 96.4477 382 97V177.5C382 178.052 381.552 178.5 381 178.5C380.448 178.5 380 178.052 380 177.5V97C380 96.4477 380.448 96 381 96ZM362 130.5C362.552 130.5 363 130.948 363 131.5V212C363 212.552 362.552 213 362 213C361.448 213 361 212.552 361 212V131.5C361 130.948 361.448 130.5 362 130.5Z" fill="#2B2B2B"/>
<path fillRule="evenodd" clipRule="evenodd" d="M58 231C57.4477 231 57 231.448 57 232V283.1C57 283.652 57.4477 284.1 58 284.1C58.5523 284.1 59 283.652 59 283.1V232C59 231.448 58.5523 231 58 231ZM76 252.9C75.4477 252.9 75 253.348 75 253.9V305C75 305.552 75.4477 306 76 306C76.5523 306 77 305.552 77 305V253.9C77 253.348 76.5523 252.9 76 252.9Z" fill="#2B2B2B"/>
<path d="M171.071 11.384V9.822H160.137V7.996H171.335V6.412H158.201V15.036H171.467V13.474H160.137V11.384H171.071ZM165.747 24.43V18.534H173.491V16.928H156.133V18.534H163.789V24.43H165.747ZM189.908 14.112V12.506H178.556V8.084H189.71V6.5H176.598V14.112H189.908ZM184.122 24.43V17.984H191.866V16.422H174.508V17.984H182.164V24.43H184.122ZM210.242 15.696V14.2H192.884V15.696H210.242ZM208.856 24.188V22.714H196.8V21.306H208.24V17.038H194.864V18.512H206.304V19.942H194.864V24.188H208.856ZM208.526 12.836V11.384H197.02V10.086H208.13V5.972H195.084V7.424H206.194V8.766H195.062V12.836H208.526ZM234.088 11.076V9.47H231.228V5.312H229.27V15.124H231.228V11.076H234.088ZM231.91 24.408V22.802H220.932V20.91H231.228V16.114H218.842V17.676H229.27V19.458H218.996V24.408H231.91ZM218.842 12.77V8.018H225.75V6.456H216.928V14.354H218.842C222.252 14.354 225.53 14.134 227.554 13.716L227.29 12.154C225.486 12.55 222.626 12.77 220.096 12.77H218.842ZM248.569 11.208V17.06H250.527V5.312H248.569V9.624H244.873V11.208H248.569ZM250.681 20.822C250.681 18.534 248.349 17.082 244.191 17.082C240.077 17.082 237.723 18.534 237.723 20.822C237.723 23.11 240.077 24.54 244.191 24.54C248.349 24.54 250.681 23.11 250.681 20.822ZM244.191 18.644C247.051 18.644 248.701 19.48 248.701 20.822C248.701 22.164 247.051 22.978 244.191 22.978C241.375 22.978 239.703 22.164 239.703 20.822C239.703 19.48 241.375 18.644 244.191 18.644ZM245.775 14.266C243.575 13.496 241.243 11.274 241.243 8.238V6.39H239.263V8.326C239.263 11.34 237.217 13.65 234.445 14.838L235.655 16.356C237.723 15.41 239.681 13.54 240.275 11.538C241.045 13.452 242.915 15.014 244.631 15.784L245.775 14.266ZM271.036 14.948V13.32H267.978V5.312H266.02V24.54H267.978V14.948H271.036ZM261.62 8.15V6.566H255.878V8.15H261.62ZM264.414 11.45V9.888H253.018V11.45H264.414ZM263.336 16.598C263.336 14.288 261.532 12.528 258.804 12.528C256.076 12.528 254.25 14.332 254.25 16.598C254.25 18.908 256.076 20.624 258.804 20.624C261.532 20.624 263.336 18.864 263.336 16.598ZM261.422 16.598C261.422 18.006 260.388 18.996 258.804 18.996C257.286 18.996 256.208 18.006 256.208 16.598C256.208 15.168 257.308 14.156 258.804 14.156C260.3 14.156 261.422 15.168 261.422 16.598ZM288.862 21.746V20.14H280.062V13.672H278.104V20.14H271.504V21.746H288.862ZM286.618 7.094H273.286V8.678H284.616V10.988C284.616 13.254 284.352 15.938 283.934 17.588C284.572 17.676 285.188 17.786 285.804 17.896C286.354 15.564 286.574 13.122 286.618 10.042V7.094ZM161.669 48.344V46.76H144.311V48.344H161.669ZM160.151 57.408V55.802H148.315V54.262H159.491V49.774H146.313V51.336H157.555V52.832H146.379V57.408H160.151ZM159.425 45.176V38.752H157.467V40.512H148.491V38.774H146.555V45.176H159.425ZM157.467 43.658H148.491V42.052H157.467V43.658ZM165.524 51.006V52.59H176.502V57.54H178.482V51.006H165.524ZM173.356 46.914C171.31 47.376 168.736 47.508 165.81 47.508H165.37V44.89H171.948V39.412H163.39V40.974H169.99V43.372H163.412V49.048H166.008C169 49.048 171.838 48.872 173.598 48.432L173.356 46.914ZM173.334 44.89H176.502V49.994H178.46V38.312H176.502V43.284H173.334V44.89ZM198.419 48.102V46.518H181.061V48.102H198.419ZM196.967 57.408V55.802H184.977V54.152H196.241V49.73H182.997V51.314H194.305V52.7H183.041V57.408H196.967ZM196.417 41.986C196.417 39.808 193.931 38.576 189.751 38.576C185.615 38.576 183.129 39.808 183.129 41.986C183.129 44.142 185.615 45.374 189.751 45.374C193.931 45.374 196.417 44.142 196.417 41.986ZM189.751 40.138C192.611 40.138 194.415 40.886 194.415 41.986C194.415 43.064 192.611 43.812 189.751 43.812C186.935 43.812 185.153 43.064 185.153 41.986C185.153 40.886 186.935 40.138 189.751 40.138ZM222.332 44.142V42.536H219.736V38.312H217.844V48.234H219.736V44.142H222.332ZM217.25 45.594C215.468 44.626 214.258 43.13 214.258 40.27V39.038H212.432V40.424C212.432 43.35 211.134 45.286 209.044 46.672L210.232 47.926C211.596 47.024 213.026 45.242 213.4 43.878C213.862 45.044 215.072 46.298 216.194 46.936L217.25 45.594ZM216.744 49.774V48.212H210.892V49.774H216.744ZM210.958 44.076C209.792 43.416 208.956 42.338 208.956 40.446V39.236H207.108V40.38C207.108 42.712 206.008 44.604 203.984 45.836L205.194 47.09C206.294 46.364 207.702 44.736 208.076 43.482C208.362 44.164 209.242 45.022 209.836 45.396L210.958 44.076ZM220.572 52.172V50.676H207.064V52.172H220.572ZM219.054 55.296C219.054 53.866 217.558 52.744 213.84 52.744C210.1 52.744 208.604 53.866 208.604 55.296C208.604 56.704 210.122 57.804 213.84 57.804C217.514 57.804 219.054 56.704 219.054 55.296ZM217.03 55.296C217.03 56.022 215.93 56.44 213.84 56.44C211.706 56.44 210.606 56.022 210.606 55.296C210.606 54.548 211.75 54.152 213.84 54.152C215.974 54.152 217.03 54.548 217.03 55.296ZM240.861 47.552V45.946H237.781V38.312H235.823V57.54H237.781V47.552H240.861ZM223.217 46.474C223.217 50.28 224.713 53.272 228.101 53.272C231.489 53.272 232.963 50.28 232.963 46.496C232.963 42.668 231.489 39.676 228.101 39.676C224.713 39.676 223.217 42.668 223.217 46.474ZM231.049 46.496C231.049 49.444 230.037 51.6 228.101 51.6C226.165 51.6 225.175 49.444 225.175 46.496C225.175 43.504 226.165 41.348 228.101 41.348C230.037 41.348 231.049 43.504 231.049 46.496ZM256.552 49.818V39.654H254.616V43.152H245.354V39.654H243.396V49.818H248.962V53.602H241.306V55.186H258.664V53.602H250.92V49.818H256.552ZM254.616 48.212H245.354V44.736H254.616V48.212ZM275.917 57.54V38.312H274.047V57.54H275.917ZM272.111 56.594V38.752H270.263V45.132H267.227V46.738H270.263V56.594H272.111ZM269.251 51.38C267.073 50.016 265.291 47.112 265.291 43.394V40.138H263.421V43.416C263.421 47.288 261.463 50.434 259.197 51.886L260.407 53.25C262.299 51.952 263.905 49.664 264.367 47.53C264.939 49.62 266.633 51.776 268.063 52.744L269.251 51.38ZM293.896 44.582C293.896 41.59 291.058 39.588 286.724 39.588C282.434 39.588 279.574 41.59 279.574 44.582C279.574 47.574 282.434 49.554 286.724 49.554C291.036 49.554 293.896 47.574 293.896 44.582ZM291.894 44.582C291.894 46.584 289.826 47.948 286.724 47.948C283.622 47.948 281.576 46.584 281.576 44.582C281.576 42.558 283.622 41.194 286.724 41.194C289.848 41.194 291.894 42.558 291.894 44.582ZM295.414 55.098V53.514H291.19V50.104L289.254 50.038V53.514H284.172V50.038L282.214 50.104V53.514H278.056V55.098H295.414ZM297.729 51.578H299.379L299.621 39.588H297.487L297.729 51.578ZM297.509 55.45H299.643V53.316H297.509V55.45Z" fill="#131313"/>
<rect x="110.658" y="123" width="49.1007" height="33.8792" rx="7" fill="#FF6A23" stroke="black" stroke-width="2"/>
<rect x="179.154" y="123" width="49.1007" height="33.8792" rx="7" fill="#FF6A23" stroke="black" stroke-width="2"/>
<rect x="90" y="140.396" width="160" height="80.6309" fill="#FF8737" stroke="black" stroke-width="2"/>
<rect x="27" y="350" width="49.1007" height="33.8792" rx="7" fill="#47C0D1" stroke="black" stroke-width="2"/>
<rect x="99.1006" y="350" width="49.1007" height="33.8792" rx="7" fill="#47C0D1" stroke="black" stroke-width="2"/>
<rect x="171.201" y="350" width="49.1007" height="33.8792" rx="7" fill="#47C0D1" stroke="black" stroke-width="2"/>
<rect x="1" y="367" width="245" height="81" fill="#63D2DE" stroke="black" stroke-width="2"/>
<rect x="292.658" y="243" width="49.1007" height="33.8792" rx="7" fill="#FF98BE" stroke="black" stroke-width="2"/>
<rect x="361.154" y="243" width="49.1007" height="33.8792" rx="7" fill="#FF98BE" stroke="black" stroke-width="2"/>
<rect x="272" y="260.396" width="160" height="80.6309" fill="#FFB1D0" stroke="black" stroke-width="2"/>
<path d="M495 448L47 448" stroke="black" stroke-width="2"/>
</svg>
