<svg width="15" height="14" viewBox="0 0 15 14" fill="none" xmlns="http://www.w3.org/2000/svg">
<path d="M0.500247 7.00053C0.503247 7.10704 0.530596 7.20441 0.582293 7.29263C0.63399 7.38086 0.703953 7.45082 0.792182 7.50252C0.880411 7.55421 0.976258 7.58004 1.07972 7.58L6.92246 7.57765L6.92012 13.4203C6.92008 13.5238 6.94591 13.6196 6.9976 13.7078C7.0493 13.7961 7.11926 13.866 7.20749 13.9177C7.29572 13.9755 7.39309 14.0029 7.4996 13.9998C7.60306 13.9997 7.69741 13.9723 7.78264 13.9175C7.87091 13.8657 7.94093 13.7957 7.99269 13.7074C8.0475 13.6222 8.07493 13.5279 8.07497 13.4244L8.08188 7.57719L13.9246 7.57485C14.0281 7.5748 14.124 7.5489 14.2122 7.49713C14.3005 7.44536 14.3705 7.37535 14.4223 7.28708C14.4741 7.19881 14.5 7.10294 14.5 6.99948C14.5 6.88993 14.4727 6.79256 14.418 6.70738C14.3663 6.61915 14.2963 6.54919 14.2081 6.49749C14.1229 6.44275 14.027 6.41693 13.9205 6.42001L8.07778 6.42236L8.08013 0.579714C8.08321 0.473206 8.05586 0.37584 7.99808 0.287615C7.94638 0.199387 7.87642 0.129425 7.78819 0.0777292C7.70301 0.0229886 7.60716 -0.00283879 7.50065 0.000247001C7.39718 0.000288526 7.30132 0.0261929 7.21305 0.07796C7.12782 0.132769 7.0578 0.202787 7.00299 0.288014C6.95122 0.376283 6.92532 0.472149 6.92527 0.575613L6.92293 6.41826L1.07562 6.42517C0.972157 6.42521 0.876289 6.45111 0.788019 6.50288C0.699748 6.55465 0.628208 6.62314 0.573398 6.70837C0.52163 6.79664 0.497246 6.89403 0.500247 7.00053Z" fill="black"/>
</svg>
