<svg width="20" height="20" viewBox="0 0 20 20" fill="none" xmlns="http://www.w3.org/2000/svg">
<path d="M0 10C0 10.3744 0.131422 10.693 0.394265 10.9558C0.657109 11.2107 0.971724 11.3381 1.33811 11.3381H8.66189V18.6738C8.66189 19.0323 8.79331 19.3429 9.05615 19.6057C9.319 19.8686 9.63361 20 10 20C10.3744 20 10.693 19.8686 10.9558 19.6057C11.2186 19.3429 11.3501 19.0323 11.3501 18.6738V11.3381H18.6619C19.0283 11.3381 19.3429 11.2107 19.6057 10.9558C19.8686 10.693 20 10.3744 20 10C20 9.63361 19.8686 9.319 19.6057 9.05615C19.3429 8.78534 19.0283 8.64994 18.6619 8.64994H11.3501V1.33811C11.3501 0.971724 11.2186 0.657109 10.9558 0.394265C10.693 0.131422 10.3744 0 10 0C9.63361 0 9.319 0.131422 9.05615 0.394265C8.79331 0.657109 8.66189 0.971724 8.66189 1.33811V8.64994H1.33811C0.971724 8.64994 0.657109 8.78534 0.394265 9.05615C0.131422 9.319 0 9.63361 0 10Z" fill="white"/>
</svg>
