<svg width="14" height="14" viewBox="0 0 14 14" fill="none" xmlns="http://www.w3.org/2000/svg">
<path d="M7 14C7.95621 14 8.85523 13.817 9.69706 13.451C10.5435 13.085 11.2892 12.5794 11.9343 11.9343C12.5794 11.2892 13.085 10.5458 13.451 9.70392C13.817 8.85752 14 7.95621 14 7C14 6.04379 13.817 5.14477 13.451 4.30294C13.085 3.45654 12.5794 2.71078 11.9343 2.06569C11.2892 1.42059 10.5435 0.915033 9.69706 0.54902C8.85065 0.183007 7.94935 0 6.99314 0C6.03693 0 5.13562 0.183007 4.28922 0.54902C3.44739 0.915033 2.70392 1.42059 2.05882 2.06569C1.4183 2.71078 0.915033 3.45654 0.54902 4.30294C0.183007 5.14477 0 6.04379 0 7C0 7.95621 0.183007 8.85752 0.54902 9.70392C0.915033 10.5458 1.42059 11.2892 2.06569 11.9343C2.71078 12.5794 3.45425 13.085 4.29608 13.451C5.14248 13.817 6.04379 14 7 14ZM7 12.8333C6.1902 12.8333 5.43301 12.6824 4.72843 12.3804C4.02386 12.0784 3.40392 11.6621 2.86863 11.1314C2.33791 10.5961 1.92157 9.97614 1.61961 9.27157C1.32222 8.56699 1.17353 7.8098 1.17353 7C1.17353 6.1902 1.32222 5.43301 1.61961 4.72843C1.92157 4.02386 2.33791 3.40392 2.86863 2.86863C3.39935 2.33333 4.01699 1.91699 4.72157 1.61961C5.42614 1.31765 6.18333 1.16667 6.99314 1.16667C7.80294 1.16667 8.56013 1.31765 9.26471 1.61961C9.97386 1.91699 10.5938 2.33333 11.1245 2.86863C11.6598 3.40392 12.0784 4.02386 12.3804 4.72843C12.6824 5.43301 12.8333 6.1902 12.8333 7C12.8333 7.8098 12.6824 8.56699 12.3804 9.27157C12.083 9.97614 11.6667 10.5961 11.1314 11.1314C10.5961 11.6621 9.97614 12.0784 9.27157 12.3804C8.56699 12.6824 7.8098 12.8333 7 12.8333ZM6.99314 10.4382C7.46895 10.4382 7.88758 10.3536 8.24902 10.1843C8.61046 10.0105 8.88954 9.81373 9.08627 9.59412C9.28758 9.36993 9.38824 9.18235 9.38824 9.03137C9.38824 8.94902 9.35392 8.89183 9.28529 8.8598C9.22124 8.82778 9.15261 8.82778 9.07941 8.8598C8.83235 8.99706 8.54641 9.12974 8.22157 9.25784C7.90131 9.38137 7.49183 9.44314 6.99314 9.44314C6.49444 9.44314 6.08268 9.38137 5.75784 9.25784C5.43758 9.12974 5.15163 8.99706 4.9 8.8598C4.8268 8.82778 4.75817 8.82778 4.69412 8.8598C4.63007 8.89183 4.59804 8.94902 4.59804 9.03137C4.59804 9.18235 4.69641 9.36993 4.89314 9.59412C5.09444 9.81373 5.37582 10.0105 5.73725 10.1843C6.09869 10.3536 6.51732 10.4382 6.99314 10.4382ZM4.9549 6.38922C5.17451 6.38922 5.36667 6.30229 5.53137 6.12843C5.69608 5.95 5.77843 5.72353 5.77843 5.44902C5.77843 5.17451 5.69608 4.94804 5.53137 4.76961C5.36667 4.59118 5.17451 4.50196 4.9549 4.50196C4.73987 4.50196 4.55229 4.59118 4.39216 4.76961C4.23203 4.94804 4.15196 5.17451 4.15196 5.44902C4.15196 5.72353 4.23203 5.95 4.39216 6.12843C4.55229 6.30229 4.73987 6.38922 4.9549 6.38922ZM9.02451 6.38922C9.24412 6.38922 9.43627 6.30229 9.60098 6.12843C9.76569 5.95 9.84804 5.72353 9.84804 5.44902C9.84804 5.17451 9.76569 4.94804 9.60098 4.76961C9.43627 4.59118 9.24412 4.50196 9.02451 4.50196C8.80948 4.50196 8.6219 4.59118 8.46176 4.76961C8.30163 4.94804 8.22157 5.17451 8.22157 5.44902C8.22157 5.72353 8.30163 5.95 8.46176 6.12843C8.6219 6.30229 8.80948 6.38922 9.02451 6.38922Z" fill="#3F3F3F"/>
</svg>
