<svg width="13" height="16" viewBox="0 0 13 16" fill="none" xmlns="http://www.w3.org/2000/svg">
<path opacity="0.4" d="M0 9.32275C0 10.1704 0.157227 10.9657 0.47168 11.7085C0.79069 12.4468 1.22819 13.0962 1.78418 13.6567C2.34017 14.2173 2.9873 14.6525 3.72559 14.9624C4.46842 15.2769 5.26367 15.4341 6.11133 15.4341C6.95443 15.4341 7.74512 15.2769 8.4834 14.9624C9.22168 14.6525 9.86882 14.2173 10.4248 13.6567C10.9854 13.0962 11.4229 12.4468 11.7373 11.7085C12.0518 10.9657 12.209 10.1704 12.209 9.32275C12.209 8.47965 12.0518 7.68896 11.7373 6.95068C11.4274 6.2124 10.9945 5.56527 10.4385 5.00928C9.88249 4.45329 9.23535 4.01807 8.49707 3.70361C7.75879 3.3846 6.97038 3.2251 6.13184 3.2251C5.9541 3.2251 5.77865 3.23421 5.60547 3.25244C5.43685 3.27067 5.27734 3.29574 5.12695 3.32764L6.77441 1.69385C6.83366 1.63005 6.87923 1.56169 6.91113 1.48877C6.94303 1.4113 6.95898 1.32926 6.95898 1.24268C6.95898 1.05127 6.89518 0.891764 6.76758 0.76416C6.64453 0.631999 6.49186 0.565918 6.30957 0.565918C6.11361 0.565918 5.95638 0.62972 5.83789 0.757324L3.02832 3.61475C2.8916 3.75146 2.82324 3.91553 2.82324 4.10693C2.82324 4.19808 2.83919 4.28467 2.87109 4.3667C2.90299 4.44873 2.9554 4.5262 3.02832 4.59912L5.83789 7.4292C5.95638 7.55225 6.11133 7.61377 6.30273 7.61377C6.48958 7.61377 6.64453 7.54997 6.76758 7.42236C6.89518 7.29476 6.95898 7.13753 6.95898 6.95068C6.95898 6.8641 6.94303 6.78434 6.91113 6.71143C6.87923 6.63395 6.83138 6.56331 6.76758 6.49951L4.91504 4.66064C5.09277 4.62419 5.2819 4.59684 5.48242 4.57861C5.6875 4.55583 5.90397 4.54443 6.13184 4.54443C6.78809 4.54443 7.40332 4.66748 7.97754 4.91357C8.55176 5.15967 9.05534 5.50146 9.48828 5.93896C9.92122 6.37191 10.2585 6.87777 10.5 7.45654C10.7461 8.03532 10.8691 8.65739 10.8691 9.32275C10.8691 9.98356 10.7461 10.6034 10.5 11.1821C10.2539 11.7563 9.91211 12.2645 9.47461 12.7065C9.04167 13.144 8.53581 13.4858 7.95703 13.7319C7.38281 13.9735 6.76758 14.0942 6.11133 14.0942C5.44596 14.0942 4.82389 13.9735 4.24512 13.7319C3.6709 13.4858 3.16504 13.144 2.72754 12.7065C2.2946 12.2645 1.95508 11.7563 1.70898 11.1821C1.46289 10.6034 1.33984 9.98356 1.33984 9.32275C1.33984 9.11768 1.2806 8.95133 1.16211 8.82373C1.04362 8.69613 0.884115 8.63232 0.683594 8.63232C0.48763 8.63232 0.323568 8.69613 0.191406 8.82373C0.0638021 8.95133 0 9.11768 0 9.32275Z" fill="#131313"/>
</svg>
