<svg width="22" height="22" viewBox="0 0 22 22" fill="none" xmlns="http://www.w3.org/2000/svg">
<g opacity="0.5">
<mask id="path-1-outside-1_1336_5995" maskUnits="userSpaceOnUse" x="0" y="0" width="22" height="22" fill="black">
<rect fill="white" width="22" height="22"/>
<path fill-rule="evenodd" clip-rule="evenodd" d="M11 21C16.5228 21 21 16.5228 21 11C21 5.47715 16.5228 1 11 1C5.47715 1 1 5.47715 1 11C1 16.5228 5.47715 21 11 21ZM7.41722 10.7012C7.3815 10.7916 7.36364 10.8901 7.36364 10.9969C7.36364 11.1037 7.3815 11.2022 7.41722 11.2926C7.45294 11.3829 7.50652 11.4692 7.57796 11.5513L11.7519 16.2451C11.8698 16.3847 12.0163 16.4545 12.1913 16.4545C12.3056 16.4545 12.411 16.4217 12.5074 16.356C12.6039 16.2944 12.6807 16.2082 12.7378 16.0973C12.7914 15.9905 12.8182 15.8714 12.8182 15.74C12.8182 15.5429 12.7539 15.3684 12.6253 15.2164L8.8639 10.9969L12.6253 6.77742C12.7539 6.62548 12.8182 6.45301 12.8182 6.26C12.8182 6.12448 12.7914 6.00334 12.7378 5.89657C12.6807 5.78979 12.6039 5.70561 12.5074 5.64401C12.411 5.57831 12.3056 5.54545 12.1913 5.54545C12.0163 5.54545 11.8698 5.61321 11.7519 5.74873L7.57796 10.4425C7.50652 10.5247 7.45294 10.6109 7.41722 10.7012Z"/>
</mask>
<path fill-rule="evenodd" clip-rule="evenodd" d="M11 21C16.5228 21 21 16.5228 21 11C21 5.47715 16.5228 1 11 1C5.47715 1 1 5.47715 1 11C1 16.5228 5.47715 21 11 21ZM7.41722 10.7012C7.3815 10.7916 7.36364 10.8901 7.36364 10.9969C7.36364 11.1037 7.3815 11.2022 7.41722 11.2926C7.45294 11.3829 7.50652 11.4692 7.57796 11.5513L11.7519 16.2451C11.8698 16.3847 12.0163 16.4545 12.1913 16.4545C12.3056 16.4545 12.411 16.4217 12.5074 16.356C12.6039 16.2944 12.6807 16.2082 12.7378 16.0973C12.7914 15.9905 12.8182 15.8714 12.8182 15.74C12.8182 15.5429 12.7539 15.3684 12.6253 15.2164L8.8639 10.9969L12.6253 6.77742C12.7539 6.62548 12.8182 6.45301 12.8182 6.26C12.8182 6.12448 12.7914 6.00334 12.7378 5.89657C12.6807 5.78979 12.6039 5.70561 12.5074 5.64401C12.411 5.57831 12.3056 5.54545 12.1913 5.54545C12.0163 5.54545 11.8698 5.61321 11.7519 5.74873L7.57796 10.4425C7.50652 10.5247 7.45294 10.6109 7.41722 10.7012Z" fill="black"/>
<path d="M7.57796 11.5513L6.82341 12.2076L6.83068 12.2158L7.57796 11.5513ZM11.7519 16.2451L12.516 15.6L12.5077 15.5902L12.4992 15.5806L11.7519 16.2451ZM12.5074 16.356L11.9691 15.5132L11.9566 15.5212L11.9444 15.5295L12.5074 16.356ZM12.7378 16.0973L13.6267 16.5555L13.6316 16.5458L12.7378 16.0973ZM12.6253 15.2164L13.3886 14.5704L13.3803 14.5606L13.3718 14.551L12.6253 15.2164ZM8.8639 10.9969L8.11744 10.3315L7.52426 10.9969L8.11744 11.6623L8.8639 10.9969ZM12.6253 6.77742L13.3718 7.44285L13.3803 7.43325L13.3886 7.42345L12.6253 6.77742ZM12.7378 5.89657L13.6316 5.44804L13.6257 5.43626L13.6194 5.42464L12.7378 5.89657ZM12.5074 5.64401L11.9444 6.47045L11.9566 6.4788L11.9691 6.48679L12.5074 5.64401ZM11.7519 5.74873L12.4992 6.41328L12.5064 6.40503L11.7519 5.74873ZM7.57796 10.4425L6.83064 9.77798L6.82346 9.78624L7.57796 10.4425ZM20 11C20 15.9706 15.9706 20 11 20V22C17.0751 22 22 17.0751 22 11H20ZM11 2C15.9706 2 20 6.02944 20 11H22C22 4.92487 17.0751 0 11 0V2ZM2 11C2 6.02944 6.02944 2 11 2V0C4.92487 0 0 4.92487 0 11H2ZM11 20C6.02944 20 2 15.9706 2 11H0C0 17.0751 4.92487 22 11 22V20ZM8.36364 10.9969C8.36364 11.0035 8.36211 11.0311 8.34717 11.0689L6.48727 10.3336C6.40088 10.552 6.36364 10.7768 6.36364 10.9969H8.36364ZM8.34717 10.9249C8.36211 10.9627 8.36364 10.9903 8.36364 10.9969H6.36364C6.36364 11.2171 6.40088 11.4418 6.48727 11.6603L8.34717 10.9249ZM8.33246 10.895C8.32926 10.8913 8.3303 10.892 8.3336 10.8973C8.33697 10.9027 8.34206 10.912 8.34717 10.9249L6.48727 11.6603C6.56939 11.868 6.68648 12.0501 6.82346 12.2076L8.33246 10.895ZM12.4992 15.5806L8.32524 10.8868L6.83068 12.2158L11.0046 16.9096L12.4992 15.5806ZM12.1913 15.4545C12.2407 15.4545 12.3089 15.4654 12.3805 15.4995C12.4508 15.533 12.4949 15.575 12.516 15.6L10.9878 16.8902C11.2861 17.2435 11.7072 17.4545 12.1913 17.4545V15.4545ZM11.9444 15.5295C11.9731 15.51 12.0115 15.4898 12.0584 15.4752C12.1055 15.4606 12.1511 15.4545 12.1913 15.4545V17.4545C12.5109 17.4545 12.8117 17.3587 13.0704 17.1824L11.9444 15.5295ZM11.8489 15.6391C11.8558 15.6258 11.8688 15.6045 11.8906 15.5801C11.9126 15.5553 11.9393 15.5323 11.9691 15.5132L13.0457 17.1988C13.3041 17.0337 13.4962 16.8087 13.6267 16.5554L11.8489 15.6391ZM11.8182 15.74C11.8182 15.7375 11.8185 15.7262 11.8225 15.7084C11.8265 15.6903 11.8335 15.6697 11.844 15.6487L13.6316 16.5458C13.7618 16.2863 13.8182 16.0113 13.8182 15.74H11.8182ZM11.862 15.8624C11.8562 15.8556 11.8426 15.8367 11.8316 15.807C11.8206 15.7771 11.8182 15.7523 11.8182 15.74H13.8182C13.8182 15.3038 13.6684 14.901 13.3886 14.5704L11.862 15.8624ZM8.11744 11.6623L11.8788 15.8818L13.3718 14.551L9.61037 10.3315L8.11744 11.6623ZM11.8788 6.112L8.11744 10.3315L9.61037 11.6623L13.3718 7.44285L11.8788 6.112ZM11.8182 6.26C11.8182 6.2431 11.8214 6.21568 11.833 6.1848C11.8443 6.15436 11.8578 6.13638 11.862 6.1314L13.3886 7.42345C13.6648 7.09711 13.8182 6.69752 13.8182 6.26H11.8182ZM11.844 6.34509C11.8324 6.32185 11.8254 6.30039 11.8217 6.28343C11.818 6.26693 11.8182 6.25825 11.8182 6.26H13.8182C13.8182 5.98982 13.7639 5.7117 13.6316 5.44804L11.844 6.34509ZM11.9691 6.48679C11.9437 6.47056 11.9196 6.45032 11.8986 6.42731C11.8778 6.40452 11.8642 6.38354 11.8562 6.36849L13.6194 5.42464C13.4864 5.176 13.2949 4.96042 13.0457 4.80124L11.9691 6.48679ZM12.1913 6.54545C12.1511 6.54545 12.1055 6.53945 12.0584 6.52477C12.0115 6.51016 11.9731 6.49003 11.9444 6.47045L13.0704 4.81757C12.8117 4.64131 12.5109 4.54545 12.1913 4.54545V6.54545ZM12.5064 6.40503C12.4833 6.4316 12.4386 6.47212 12.3701 6.50385C12.3008 6.53588 12.2363 6.54545 12.1913 6.54545V4.54545C11.7183 4.54545 11.2995 4.74512 10.9974 5.09243L12.5064 6.40503ZM8.32524 11.107L12.4992 6.41324L11.0046 5.08422L6.83068 9.77802L8.32524 11.107ZM8.34717 11.0689C8.34206 11.0819 8.33697 11.0911 8.3336 11.0966C8.3303 11.1019 8.32926 11.1025 8.33246 11.0988L6.82346 9.78624C6.68648 9.94371 6.56939 10.1259 6.48727 10.3336L8.34717 11.0689Z" fill="white" fill-opacity="0.2" mask="url(#path-1-outside-1_1336_5995)"/>
</g>
</svg>
