<svg width="22" height="22" viewBox="0 0 22 22" fill="none" xmlns="http://www.w3.org/2000/svg">
<g opacity="0.5">
<mask id="path-1-outside-1_1336_5998" maskUnits="userSpaceOnUse" x="0" y="0" width="22" height="22" fill="black">
<rect fill="white" width="22" height="22"/>
<path fill-rule="evenodd" clipRule="evenodd" d="M11 21C5.47715 21 1 16.5228 1 11C1 5.47715 5.47715 1 11 1C16.5228 1 21 5.47715 21 11C21 16.5228 16.5228 21 11 21ZM14.5828 10.7012C14.6185 10.7916 14.6364 10.8901 14.6364 10.9969C14.6364 11.1037 14.6185 11.2022 14.5828 11.2926C14.5471 11.3829 14.4935 11.4692 14.422 11.5513L10.2481 16.2451C10.1302 16.3847 9.98375 16.4545 9.80872 16.4545C9.69441 16.4545 9.58903 16.4217 9.49259 16.356C9.39614 16.2944 9.31934 16.2082 9.26219 16.0973C9.20861 15.9905 9.18182 15.8714 9.18182 15.74C9.18182 15.5429 9.24611 15.3684 9.37471 15.2164L13.1361 10.9969L9.37471 6.77742C9.24611 6.62548 9.18182 6.45301 9.18182 6.26C9.18182 6.12448 9.20861 6.00334 9.26219 5.89657C9.31934 5.78979 9.39614 5.70561 9.49259 5.64401C9.58903 5.57831 9.69441 5.54545 9.80872 5.54545C9.98375 5.54545 10.1302 5.61321 10.2481 5.74873L14.422 10.4425C14.4935 10.5247 14.5471 10.6109 14.5828 10.7012Z"/>
</mask>
<path fill-rule="evenodd" clipRule="evenodd" d="M11 21C5.47715 21 1 16.5228 1 11C1 5.47715 5.47715 1 11 1C16.5228 1 21 5.47715 21 11C21 16.5228 16.5228 21 11 21ZM14.5828 10.7012C14.6185 10.7916 14.6364 10.8901 14.6364 10.9969C14.6364 11.1037 14.6185 11.2022 14.5828 11.2926C14.5471 11.3829 14.4935 11.4692 14.422 11.5513L10.2481 16.2451C10.1302 16.3847 9.98375 16.4545 9.80872 16.4545C9.69441 16.4545 9.58903 16.4217 9.49259 16.356C9.39614 16.2944 9.31934 16.2082 9.26219 16.0973C9.20861 15.9905 9.18182 15.8714 9.18182 15.74C9.18182 15.5429 9.24611 15.3684 9.37471 15.2164L13.1361 10.9969L9.37471 6.77742C9.24611 6.62548 9.18182 6.45301 9.18182 6.26C9.18182 6.12448 9.20861 6.00334 9.26219 5.89657C9.31934 5.78979 9.39614 5.70561 9.49259 5.64401C9.58903 5.57831 9.69441 5.54545 9.80872 5.54545C9.98375 5.54545 10.1302 5.61321 10.2481 5.74873L14.422 10.4425C14.4935 10.5247 14.5471 10.6109 14.5828 10.7012Z" fill="black"/>
<path d="M14.422 11.5513L15.1766 12.2076L15.1693 12.2158L14.422 11.5513ZM10.2481 16.2451L9.48398 15.6L9.49227 15.5902L9.5008 15.5806L10.2481 16.2451ZM9.49259 16.356L10.0309 15.5132L10.0434 15.5212L10.0556 15.5295L9.49259 16.356ZM9.26219 16.0973L8.37327 16.5555L8.36842 16.5458L9.26219 16.0973ZM9.37471 15.2164L8.61139 14.5704L8.61969 14.5606L8.62824 14.551L9.37471 15.2164ZM13.1361 10.9969L13.8826 10.3315L14.4757 10.9969L13.8826 11.6623L13.1361 10.9969ZM9.37471 6.77742L8.62824 7.44285L8.61969 7.43325L8.61139 7.42345L9.37471 6.77742ZM9.26219 5.89657L8.36842 5.44804L8.37433 5.43626L8.38055 5.42464L9.26219 5.89657ZM9.49259 5.64401L10.0556 6.47045L10.0434 6.4788L10.0309 6.48679L9.49259 5.64401ZM10.2481 5.74873L9.50076 6.41328L9.49358 6.40503L10.2481 5.74873ZM14.422 10.4425L15.1694 9.77798L15.1765 9.78624L14.422 10.4425ZM2 11C2 15.9706 6.02944 20 11 20V22C4.92487 22 0 17.0751 0 11H2ZM11 2C6.02944 2 2 6.02944 2 11H0C0 4.92487 4.92487 0 11 0V2ZM20 11C20 6.02944 15.9706 2 11 2V0C17.0751 0 22 4.92487 22 11H20ZM11 20C15.9706 20 20 15.9706 20 11H22C22 17.0751 17.0751 22 11 22V20ZM13.6364 10.9969C13.6364 11.0035 13.6379 11.0311 13.6528 11.0689L15.5127 10.3336C15.5991 10.552 15.6364 10.7768 15.6364 10.9969H13.6364ZM13.6528 10.9249C13.6379 10.9627 13.6364 10.9903 13.6364 10.9969H15.6364C15.6364 11.2171 15.5991 11.4418 15.5127 11.6603L13.6528 10.9249ZM13.6675 10.895C13.6707 10.8913 13.6697 10.892 13.6664 10.8973C13.663 10.9027 13.6579 10.912 13.6528 10.9249L15.5127 11.6603C15.4306 11.868 15.3135 12.0501 15.1765 12.2076L13.6675 10.895ZM9.5008 15.5806L13.6748 10.8868L15.1693 12.2158L10.9954 16.9096L9.5008 15.5806ZM9.80872 15.4545C9.75929 15.4545 9.69109 15.4654 9.61954 15.4995C9.54916 15.533 9.50514 15.575 9.48398 15.6L11.0122 16.8902C10.7139 17.2435 10.2928 17.4545 9.80872 17.4545V15.4545ZM10.0556 15.5295C10.0269 15.51 9.98848 15.4898 9.94159 15.4752C9.89452 15.4606 9.84887 15.4545 9.80872 15.4545V17.4545C9.48913 17.4545 9.18829 17.3587 8.92956 17.1824L10.0556 15.5295ZM10.1511 15.6391C10.1442 15.6258 10.1312 15.6045 10.1094 15.5801C10.0874 15.5553 10.0607 15.5323 10.0309 15.5132L8.95433 17.1988C8.6959 17.0337 8.50385 16.8087 8.37333 16.5554L10.1511 15.6391ZM10.1818 15.74C10.1818 15.7375 10.1815 15.7262 10.1775 15.7084C10.1735 15.6903 10.1665 15.6697 10.156 15.6487L8.36842 16.5458C8.23822 16.2863 8.18182 16.0113 8.18182 15.74H10.1818ZM10.138 15.8624C10.1438 15.8556 10.1574 15.8367 10.1684 15.807C10.1794 15.7771 10.1818 15.7523 10.1818 15.74H8.18182C8.18182 15.3038 8.33162 14.901 8.61139 14.5704L10.138 15.8624ZM13.8826 11.6623L10.1212 15.8818L8.62824 14.551L12.3896 10.3315L13.8826 11.6623ZM10.1212 6.112L13.8826 10.3315L12.3896 11.6623L8.62824 7.44285L10.1212 6.112ZM10.1818 6.26C10.1818 6.2431 10.1786 6.21568 10.167 6.1848C10.1557 6.15436 10.1422 6.13638 10.138 6.1314L8.61139 7.42345C8.3352 7.09711 8.18182 6.69752 8.18182 6.26H10.1818ZM10.156 6.34509C10.1676 6.32185 10.1746 6.30039 10.1783 6.28343C10.182 6.26693 10.1818 6.25825 10.1818 6.26H8.18182C8.18182 5.98982 8.23611 5.7117 8.36842 5.44804L10.156 6.34509ZM10.0309 6.48679C10.0563 6.47056 10.0804 6.45032 10.1014 6.42731C10.1222 6.40452 10.1358 6.38354 10.1438 6.36849L8.38055 5.42464C8.51365 5.176 8.70509 4.96042 8.95432 4.80124L10.0309 6.48679ZM9.80872 6.54545C9.84887 6.54545 9.89452 6.53945 9.94159 6.52477C9.98848 6.51016 10.0269 6.49003 10.0556 6.47045L8.92956 4.81757C9.18829 4.64131 9.48913 4.54545 9.80872 4.54545V6.54545ZM9.49358 6.40503C9.51669 6.4316 9.56137 6.47212 9.62993 6.50385C9.69917 6.53588 9.76367 6.54545 9.80872 6.54545V4.54545C10.2817 4.54545 10.7005 4.74512 11.0026 5.09243L9.49358 6.40503ZM13.6748 11.107L9.5008 6.41324L10.9954 5.08422L15.1693 9.77802L13.6748 11.107ZM13.6528 11.0689C13.6579 11.0819 13.663 11.0911 13.6664 11.0966C13.6697 11.1019 13.6707 11.1025 13.6675 11.0988L15.1765 9.78624C15.3135 9.94371 15.4306 10.1259 15.5127 10.3336L13.6528 11.0689Z" fill="white" fill-opacity="0.2" mask="url(#path-1-outside-1_1336_5998)"/>
</g>
</svg>
