<svg width="19" height="19" viewBox="0 0 19 19" fill="none" xmlns="http://www.w3.org/2000/svg">
<path d="M5.61279 18.2622C5.84521 18.2622 6.06104 18.2013 6.26025 18.0796C6.46501 17.9634 6.7085 17.7808 6.99072 17.5317L9.82959 15.0166H14.8516C15.6872 15.0166 16.3927 14.8617 16.9683 14.5518C17.5493 14.2419 17.992 13.7992 18.2964 13.2236C18.6007 12.6426 18.7529 11.9398 18.7529 11.1152V4.67383C18.7529 3.84928 18.6007 3.14925 18.2964 2.57373C17.992 1.99268 17.5493 1.5472 16.9683 1.2373C16.3927 0.927409 15.6872 0.772461 14.8516 0.772461H4.26807C3.43245 0.772461 2.72412 0.927409 2.14307 1.2373C1.56755 1.5472 1.1276 1.99268 0.823242 2.57373C0.51888 3.14925 0.366699 3.84928 0.366699 4.67383V11.1152C0.366699 11.9398 0.51888 12.6426 0.823242 13.2236C1.13314 13.7992 1.57308 14.2419 2.14307 14.5518C2.71859 14.8617 3.40755 15.0166 4.20996 15.0166H4.55029V17.0586C4.55029 17.4294 4.6416 17.7227 4.82422 17.9385C5.01237 18.1543 5.27523 18.2622 5.61279 18.2622ZM6.01123 16.4277V14.062C6.01123 13.813 5.95589 13.6387 5.84521 13.5391C5.74007 13.4339 5.57129 13.3813 5.33887 13.3813H4.30957C3.5293 13.3813 2.94824 13.1877 2.56641 12.8003C2.1901 12.4074 2.00195 11.8263 2.00195 11.0571V4.72363C2.00195 3.95996 2.1901 3.38444 2.56641 2.99707C2.94824 2.60417 3.5293 2.40771 4.30957 2.40771H14.8101C15.5903 2.40771 16.1686 2.60417 16.5449 2.99707C16.9268 3.38444 17.1177 3.95996 17.1177 4.72363V11.0571C17.1177 11.8263 16.9268 12.4074 16.5449 12.8003C16.1686 13.1877 15.5903 13.3813 14.8101 13.3813H9.74658C9.49202 13.3813 9.28727 13.4118 9.13232 13.4727C8.98291 13.528 8.82243 13.6442 8.65088 13.8213L6.01123 16.4277ZM5.33887 5.71143H13.6895C13.8389 5.71143 13.9634 5.66162 14.063 5.56201C14.1626 5.45687 14.2124 5.33236 14.2124 5.18848C14.2124 5.05013 14.1626 4.93115 14.063 4.83154C13.9634 4.73193 13.8389 4.68213 13.6895 4.68213H5.33887C5.18945 4.68213 5.06494 4.73193 4.96533 4.83154C4.87126 4.93115 4.82422 5.05013 4.82422 5.18848C4.82422 5.33236 4.87402 5.45687 4.97363 5.56201C5.07324 5.66162 5.19499 5.71143 5.33887 5.71143ZM5.33887 8.35107H13.6895C13.8389 8.35107 13.9634 8.30127 14.063 8.20166C14.1626 8.10205 14.2124 7.97754 14.2124 7.82812C14.2124 7.69531 14.1626 7.57633 14.063 7.47119C13.9634 7.36605 13.8389 7.31348 13.6895 7.31348H5.33887C5.18945 7.31348 5.06494 7.36605 4.96533 7.47119C4.87126 7.57633 4.82422 7.69531 4.82422 7.82812C4.82422 7.97754 4.87402 8.10205 4.97363 8.20166C5.07324 8.30127 5.19499 8.35107 5.33887 8.35107ZM5.33887 10.999H10.7759C10.9198 10.999 11.0415 10.9492 11.1411 10.8496C11.2463 10.75 11.2988 10.6283 11.2988 10.4844C11.2988 10.3405 11.2463 10.2188 11.1411 10.1191C11.0415 10.014 10.9198 9.96143 10.7759 9.96143H5.33887C5.18945 9.96143 5.06494 10.014 4.96533 10.1191C4.87126 10.2188 4.82422 10.3405 4.82422 10.4844C4.82422 10.6283 4.87402 10.75 4.97363 10.8496C5.07324 10.9492 5.19499 10.999 5.33887 10.999Z" fill="#131313"/>
</svg>
