<svg width="15" height="18" viewBox="0 0 15 18" fill="none" xmlns="http://www.w3.org/2000/svg">
<path d="M4.00862 17.5H10.999C11.5822 17.5 12.0512 17.3343 12.4062 17.0029C12.7612 16.6765 12.9513 16.222 12.9767 15.6396L13.4939 4.79331H14.3306C14.5183 4.79331 14.6755 4.72803 14.8022 4.59747C14.9341 4.46692 15 4.30874 15 4.12295C15 3.93716 14.9341 3.78149 14.8022 3.65596C14.6755 3.53042 14.5183 3.46766 14.3306 3.46766H0.676978C0.489351 3.46766 0.329615 3.53293 0.197769 3.66349C0.0659229 3.78903 0 3.94218 0 4.12295C0 4.30874 0.0659229 4.46692 0.197769 4.59747C0.329615 4.72803 0.489351 4.79331 0.676978 4.79331H1.51369L2.03093 15.6471C2.05629 16.2296 2.24391 16.684 2.59381 17.0104C2.94878 17.3368 3.42039 17.5 4.00862 17.5ZM4.16075 16.1668C3.94777 16.1668 3.77282 16.0965 3.6359 15.9559C3.49899 15.8153 3.42546 15.6345 3.41531 15.4136L2.89807 4.79331H12.0791L11.5847 15.4136C11.5745 15.6396 11.501 15.8203 11.3641 15.9559C11.2272 16.0965 11.0522 16.1668 10.8392 16.1668H4.16075ZM5.26369 14.9466C5.42089 14.9466 5.54513 14.9014 5.63641 14.811C5.73276 14.7206 5.78093 14.6001 5.78093 14.4495L5.54513 6.55583C5.54513 6.41021 5.49696 6.2922 5.40061 6.20182C5.30426 6.11143 5.17748 6.06624 5.02028 6.06624C4.86308 6.06624 4.73631 6.11394 4.63996 6.20935C4.54361 6.29973 4.49797 6.41774 4.50304 6.56336L4.73124 14.457C4.73631 14.6077 4.78702 14.7282 4.88337 14.8186C4.97972 14.9039 5.10649 14.9466 5.26369 14.9466ZM7.5 14.9466C7.66227 14.9466 7.79158 14.9014 7.88793 14.811C7.98935 14.7206 8.04006 14.6026 8.04006 14.457V6.56336C8.04006 6.41774 7.98935 6.29973 7.88793 6.20935C7.79158 6.11394 7.66227 6.06624 7.5 6.06624C7.3428 6.06624 7.21349 6.11394 7.11207 6.20935C7.01572 6.29973 6.96755 6.41774 6.96755 6.56336V14.457C6.96755 14.6026 7.01572 14.7206 7.11207 14.811C7.21349 14.9014 7.3428 14.9466 7.5 14.9466ZM9.74391 14.9466C9.89604 14.9466 10.0203 14.9039 10.1166 14.8186C10.213 14.7282 10.2637 14.6077 10.2688 14.457L10.497 6.56336C10.502 6.41774 10.4564 6.29973 10.36 6.20935C10.2688 6.11394 10.142 6.06624 9.97972 6.06624C9.82759 6.06624 9.70335 6.11143 9.607 6.20182C9.51065 6.2922 9.45994 6.41272 9.45487 6.56336L9.22667 14.4495C9.2216 14.6001 9.26471 14.7206 9.35598 14.811C9.45233 14.9014 9.58164 14.9466 9.74391 14.9466ZM4.04665 3.96478H5.45385V2.40563C5.45385 2.21481 5.51724 2.06166 5.64402 1.94617C5.77079 1.82565 5.93813 1.7654 6.14604 1.7654H8.83874C9.05172 1.7654 9.2216 1.82565 9.34838 1.94617C9.47515 2.06166 9.53854 2.21481 9.53854 2.40563V3.96478H10.9457V2.33784C10.9457 1.76038 10.7683 1.31096 10.4133 0.989588C10.0583 0.663196 9.56643 0.5 8.93763 0.5H6.04716C5.41836 0.5 4.92647 0.663196 4.5715 0.989588C4.2216 1.31096 4.04665 1.76038 4.04665 2.33784V3.96478Z" fill="#FD3049"/>
</svg>
