<svg width="72" height="60" viewBox="0 0 72 60" fill="none" xmlns="http://www.w3.org/2000/svg">
<path d="M71.8822 58.8L36.6005 0.3C36.4504 0.15 36.3003 0 36 0C35.6997 0 35.5496 0.15 35.3995 0.3L0.117797 58.8C-0.182472 59.25 0.117797 60 0.718336 60H71.2817C71.8822 60 72.1825 59.4 71.8822 58.8ZM32.9973 26.55C32.9973 26.4 33.1474 26.25 33.2976 26.25H38.7024C38.8526 26.25 39.0027 26.4 39.0027 26.55V39.75C39.0027 39.9 38.8526 40.05 38.7024 40.05H33.2976C33.1474 40.05 32.9973 39.9 32.9973 39.75V26.55ZM36 49.5C34.1984 49.5 32.697 48 32.697 46.2C32.697 44.4 34.1984 42.9 36 42.9C37.8016 42.9 39.303 44.4 39.303 46.2C39.303 48 37.8016 49.5 36 49.5Z" fill="#FD3049"/>
</svg>
