<svg width="18" height="16" viewBox="0 0 18 16" fill="none" xmlns="http://www.w3.org/2000/svg">
<path d="M3.49409 16H15.0059C15.915 16 16.5983 15.7629 17.0556 15.2887C17.5185 14.8202 17.75 14.1289 17.75 13.2148V2.78522C17.75 1.86538 17.5185 1.17122 17.0556 0.702732C16.5983 0.234244 15.915 0 15.0059 0H3.49409C2.59055 0 1.90732 0.234244 1.44439 0.702732C0.981463 1.17122 0.75 1.86538 0.75 2.78522V13.2148C0.75 14.1289 0.981463 14.8202 1.44439 15.2887C1.90732 15.7629 2.59055 16 3.49409 16ZM3.47736 14.3117C3.12598 14.3117 2.85827 14.2203 2.67421 14.0375C2.49016 13.849 2.39813 13.569 2.39813 13.1976V5.27906C2.39813 4.9077 2.49016 4.62775 2.67421 4.43921C2.85827 4.25067 3.12598 4.1564 3.47736 4.1564H15.0143C15.3657 4.1564 15.6334 4.25067 15.8174 4.43921C16.0071 4.62775 16.1019 4.9077 16.1019 5.27906V13.1976C16.1019 13.569 16.0071 13.849 15.8174 14.0375C15.6334 14.2203 15.3657 14.3117 15.0143 14.3117H3.47736ZM7.6437 7.13873H8.1373C8.28232 7.13873 8.3855 7.11016 8.44685 7.05303C8.5082 6.99018 8.53888 6.88448 8.53888 6.73594V6.23032C8.53888 6.07606 8.5082 5.97322 8.44685 5.9218C8.3855 5.86467 8.28232 5.8361 8.1373 5.8361H7.6437C7.49311 5.8361 7.38714 5.86467 7.32579 5.9218C7.27001 5.97322 7.24213 6.07606 7.24213 6.23032V6.73594C7.24213 6.88448 7.27001 6.99018 7.32579 7.05303C7.38714 7.11016 7.49311 7.13873 7.6437 7.13873ZM10.3711 7.13873H10.8647C11.0208 7.13873 11.1268 7.11016 11.1826 7.05303C11.2384 6.99018 11.2662 6.88448 11.2662 6.73594V6.23032C11.2662 6.07606 11.2384 5.97322 11.1826 5.9218C11.1268 5.86467 11.0208 5.8361 10.8647 5.8361H10.3711C10.2261 5.8361 10.1229 5.86467 10.0615 5.9218C10.0057 5.97322 9.97785 6.07606 9.97785 6.23032V6.73594C9.97785 6.88448 10.0057 6.99018 10.0615 7.05303C10.1229 7.11016 10.2261 7.13873 10.3711 7.13873ZM13.1152 7.13873H13.6004C13.7566 7.13873 13.8625 7.11016 13.9183 7.05303C13.9741 6.99018 14.002 6.88448 14.002 6.73594V6.23032C14.002 6.07606 13.9741 5.97322 13.9183 5.9218C13.8625 5.86467 13.7566 5.8361 13.6004 5.8361H13.1152C12.9646 5.8361 12.8586 5.86467 12.7972 5.9218C12.7415 5.97322 12.7136 6.07606 12.7136 6.23032V6.73594C12.7136 6.88448 12.7415 6.99018 12.7972 7.05303C12.8586 7.11016 12.9646 7.13873 13.1152 7.13873ZM4.90797 9.88966H5.40158C5.54659 9.88966 5.64698 9.8611 5.70276 9.80396C5.76411 9.74683 5.79478 9.64399 5.79478 9.49545V8.98982C5.79478 8.83557 5.76411 8.72987 5.70276 8.67274C5.64698 8.6156 5.54659 8.58704 5.40158 8.58704H4.90797C4.75738 8.58704 4.65141 8.6156 4.59006 8.67274C4.53428 8.72987 4.5064 8.83557 4.5064 8.98982V9.49545C4.5064 9.64399 4.53428 9.74683 4.59006 9.80396C4.65141 9.8611 4.75738 9.88966 4.90797 9.88966ZM7.6437 9.88966H8.1373C8.28232 9.88966 8.3855 9.8611 8.44685 9.80396C8.5082 9.74683 8.53888 9.64399 8.53888 9.49545V8.98982C8.53888 8.83557 8.5082 8.72987 8.44685 8.67274C8.3855 8.6156 8.28232 8.58704 8.1373 8.58704H7.6437C7.49311 8.58704 7.38714 8.6156 7.32579 8.67274C7.27001 8.72987 7.24213 8.83557 7.24213 8.98982V9.49545C7.24213 9.64399 7.27001 9.74683 7.32579 9.80396C7.38714 9.8611 7.49311 9.88966 7.6437 9.88966ZM10.3711 9.88966H10.8647C11.0208 9.88966 11.1268 9.8611 11.1826 9.80396C11.2384 9.74683 11.2662 9.64399 11.2662 9.49545V8.98982C11.2662 8.83557 11.2384 8.72987 11.1826 8.67274C11.1268 8.6156 11.0208 8.58704 10.8647 8.58704H10.3711C10.2261 8.58704 10.1229 8.6156 10.0615 8.67274C10.0057 8.72987 9.97785 8.83557 9.97785 8.98982V9.49545C9.97785 9.64399 10.0057 9.74683 10.0615 9.80396C10.1229 9.8611 10.2261 9.88966 10.3711 9.88966ZM13.1152 9.88966H13.6004C13.7566 9.88966 13.8625 9.8611 13.9183 9.80396C13.9741 9.74683 14.002 9.64399 14.002 9.49545V8.98982C14.002 8.83557 13.9741 8.72987 13.9183 8.67274C13.8625 8.6156 13.7566 8.58704 13.6004 8.58704H13.1152C12.9646 8.58704 12.8586 8.6156 12.7972 8.67274C12.7415 8.72987 12.7136 8.83557 12.7136 8.98982V9.49545C12.7136 9.64399 12.7415 9.74683 12.7972 9.80396C12.8586 9.8611 12.9646 9.88966 13.1152 9.88966ZM4.90797 12.6492H5.40158C5.54659 12.6492 5.64698 12.6235 5.70276 12.572C5.76411 12.5149 5.79478 12.4064 5.79478 12.2464V11.7493C5.79478 11.5951 5.76411 11.4894 5.70276 11.4322C5.64698 11.3751 5.54659 11.3465 5.40158 11.3465H4.90797C4.75738 11.3465 4.65141 11.3751 4.59006 11.4322C4.53428 11.4894 4.5064 11.5951 4.5064 11.7493V12.2464C4.5064 12.4064 4.53428 12.5149 4.59006 12.572C4.65141 12.6235 4.75738 12.6492 4.90797 12.6492ZM7.6437 12.6492H8.1373C8.28232 12.6492 8.3855 12.6235 8.44685 12.572C8.5082 12.5149 8.53888 12.4064 8.53888 12.2464V11.7493C8.53888 11.5951 8.5082 11.4894 8.44685 11.4322C8.3855 11.3751 8.28232 11.3465 8.1373 11.3465H7.6437C7.49311 11.3465 7.38714 11.3751 7.32579 11.4322C7.27001 11.4894 7.24213 11.5951 7.24213 11.7493V12.2464C7.24213 12.4064 7.27001 12.5149 7.32579 12.572C7.38714 12.6235 7.49311 12.6492 7.6437 12.6492ZM10.3711 12.6492H10.8647C11.0208 12.6492 11.1268 12.6235 11.1826 12.572C11.2384 12.5149 11.2662 12.4064 11.2662 12.2464V11.7493C11.2662 11.5951 11.2384 11.4894 11.1826 11.4322C11.1268 11.3751 11.0208 11.3465 10.8647 11.3465H10.3711C10.2261 11.3465 10.1229 11.3751 10.0615 11.4322C10.0057 11.4894 9.97785 11.5951 9.97785 11.7493V12.2464C9.97785 12.4064 10.0057 12.5149 10.0615 12.572C10.1229 12.6235 10.2261 12.6492 10.3711 12.6492Z" fill="#131313"/>
</svg>
