<svg width="20" height="16" viewBox="0 0 20 16" fill="none" xmlns="http://www.w3.org/2000/svg">
<path d="M0.771484 7.93945C0.771484 8.23242 0.898438 8.51562 1.12305 8.73047L7.55859 15.166C7.79297 15.3906 8.05664 15.498 8.32031 15.498C8.93555 15.498 9.375 15.0586 9.375 14.4727C9.375 14.1699 9.25781 13.9062 9.0625 13.7207L6.875 11.5039L3.98438 8.86719L6.26953 9.00391H18.1445C18.7793 9.00391 19.2285 8.56445 19.2285 7.93945C19.2285 7.30469 18.7793 6.875 18.1445 6.875H6.26953L3.99414 7.01172L6.875 4.375L9.0625 2.1582C9.25781 1.96289 9.375 1.69922 9.375 1.39648C9.375 0.810547 8.93555 0.380859 8.32031 0.380859C8.05664 0.380859 7.79297 0.478516 7.53906 0.722656L1.12305 7.14844C0.898438 7.35352 0.771484 7.64648 0.771484 7.93945Z" fill="black"/>
</svg>
