<svg width="24" height="24" viewBox="0 0 24 24" fill="none" xmlns="http://www.w3.org/2000/svg">
<path fillRule="evenodd" clipRule="evenodd" d="M12 3C7.023 3 3 7.023 3 12C3 16.977 7.023 21 12 21C16.977 21 21 16.977 21 12C21 7.023 16.977 3 12 3ZM12 19.2C8.031 19.2 4.8 15.969 4.8 12C4.8 8.031 8.031 4.8 12 4.8C15.969 4.8 19.2 8.031 19.2 12C19.2 15.969 15.969 19.2 12 19.2ZM12 10.731L15.231 7.5L16.5 8.769L13.269 12L16.5 15.231L15.231 16.5L12 13.269L8.769 16.5L7.5 15.231L10.731 12L7.5 8.769L8.769 7.5L12 10.731Z" fill="#7474FF"/>
</svg>
