<svg width="24" height="24" viewBox="0 0 24 24" fill="none" xmlns="http://www.w3.org/2000/svg">
<path d="M12.3281 19.1328C13.0469 19.1328 13.737 19.0729 14.3984 18.9531C15.0599 18.8385 15.6901 18.6797 16.2891 18.4766L15.0469 17.2266C14.6198 17.3464 14.1797 17.4427 13.7266 17.5156C13.2786 17.5885 12.8125 17.625 12.3281 17.625C11.4948 17.625 10.6953 17.5234 9.92969 17.3203C9.16927 17.1172 8.45573 16.8464 7.78906 16.5078C7.1224 16.1693 6.51823 15.8021 5.97656 15.4062C5.4401 15.0052 4.97656 14.6094 4.58594 14.2188C4.19531 13.8229 3.89323 13.4609 3.67969 13.1328C3.47135 12.8047 3.36719 12.5495 3.36719 12.3672C3.36719 12.237 3.44792 12.0443 3.60938 11.7891C3.77083 11.5286 4.0026 11.2318 4.30469 10.8984C4.60677 10.5651 4.96875 10.2214 5.39062 9.86719C5.81771 9.50781 6.29948 9.16406 6.83594 8.83594L5.65625 7.65625C5.02083 8.0625 4.45052 8.49219 3.94531 8.94531C3.4401 9.39323 3.01302 9.83594 2.66406 10.2734C2.3151 10.7057 2.04948 11.1068 1.86719 11.4766C1.6849 11.8411 1.59375 12.138 1.59375 12.3672C1.59375 12.6328 1.71094 12.9844 1.94531 13.4219C2.1849 13.8542 2.52604 14.3255 2.96875 14.8359C3.41667 15.3411 3.95573 15.8464 4.58594 16.3516C5.22135 16.8568 5.9375 17.3203 6.73438 17.7422C7.53125 18.1589 8.39844 18.4948 9.33594 18.75C10.2786 19.0052 11.276 19.1328 12.3281 19.1328ZM12.3281 5.60938C11.6458 5.60938 10.9948 5.66406 10.375 5.77344C9.75521 5.88281 9.15885 6.03125 8.58594 6.21875L9.83594 7.46875C10.2318 7.35938 10.6354 7.27344 11.0469 7.21094C11.4583 7.14323 11.8854 7.10938 12.3281 7.10938C13.1615 7.10938 13.9583 7.21615 14.7188 7.42969C15.4844 7.64323 16.2005 7.92448 16.8672 8.27344C17.5339 8.61719 18.1354 8.99219 18.6719 9.39844C19.2135 9.80469 19.6797 10.2083 20.0703 10.6094C20.4609 11.0052 20.7604 11.3594 20.9688 11.6719C21.1823 11.9844 21.2891 12.2161 21.2891 12.3672C21.2891 12.5234 21.2109 12.7318 21.0547 12.9922C20.9036 13.2526 20.6849 13.5443 20.3984 13.8672C20.112 14.1849 19.7682 14.513 19.3672 14.8516C18.9661 15.1901 18.5156 15.5182 18.0156 15.8359L19.1797 17C19.7891 16.599 20.3333 16.1771 20.8125 15.7344C21.2969 15.2865 21.7057 14.8516 22.0391 14.4297C22.3724 14.0026 22.625 13.6094 22.7969 13.25C22.974 12.8906 23.0625 12.5964 23.0625 12.3672C23.0625 12.1016 22.9453 11.7526 22.7109 11.3203C22.4818 10.888 22.1458 10.4193 21.7031 9.91406C21.2604 9.40365 20.724 8.89583 20.0938 8.39062C19.4688 7.88542 18.7578 7.42448 17.9609 7.00781C17.1641 6.58594 16.2917 6.2474 15.3438 5.99219C14.401 5.73698 13.3958 5.60938 12.3281 5.60938ZM12.3281 16.5781C12.6302 16.5781 12.9219 16.5443 13.2031 16.4766C13.4896 16.4036 13.7604 16.3099 14.0156 16.1953L8.49219 10.6641C8.36719 10.9245 8.27083 11.1979 8.20312 11.4844C8.14062 11.7708 8.10938 12.0651 8.10938 12.3672C8.10938 12.9401 8.21615 13.4818 8.42969 13.9922C8.64844 14.4974 8.95052 14.9453 9.33594 15.3359C9.72135 15.7214 10.1693 16.026 10.6797 16.25C11.1901 16.4688 11.7396 16.5781 12.3281 16.5781ZM16.2266 13.875C16.3307 13.6458 16.4089 13.4036 16.4609 13.1484C16.5182 12.8932 16.5469 12.6328 16.5469 12.3672C16.5469 11.7839 16.4375 11.237 16.2188 10.7266C16 10.2161 15.6979 9.77083 15.3125 9.39062C14.9271 9.00521 14.4792 8.70573 13.9688 8.49219C13.4583 8.27344 12.9141 8.16406 12.3359 8.16406C12.0651 8.16406 11.8021 8.1901 11.5469 8.24219C11.2917 8.29427 11.0495 8.36979 10.8203 8.46875L16.2266 13.875ZM18.4922 19.2656C18.612 19.3906 18.7578 19.4531 18.9297 19.4531C19.1016 19.4583 19.2474 19.3958 19.3672 19.2656C19.4974 19.1354 19.5599 18.987 19.5547 18.8203C19.5547 18.6536 19.4922 18.5078 19.3672 18.3828L6.13281 5.15625C6.01823 5.03646 5.8724 4.97656 5.69531 4.97656C5.51823 4.97656 5.36979 5.03646 5.25 5.15625C5.13021 5.27604 5.07031 5.42448 5.07031 5.60156C5.07031 5.77344 5.13021 5.91927 5.25 6.03906L18.4922 19.2656Z" fill="#C8C8C8"/>
</svg>
