<svg width="24" height="24" viewBox="0 0 24 24" fill="none" xmlns="http://www.w3.org/2000/svg">
<path d="M12.3281 19.1328C13.3958 19.1328 14.401 19.0052 15.3438 18.75C16.2917 18.4948 17.1641 18.1589 17.9609 17.7422C18.7578 17.3203 19.4688 16.8568 20.0938 16.3516C20.724 15.8464 21.2604 15.3411 21.7031 14.8359C22.1458 14.3255 22.4818 13.8542 22.7109 13.4219C22.9453 12.9844 23.0625 12.6328 23.0625 12.3672C23.0625 12.1016 22.9453 11.7526 22.7109 11.3203C22.4818 10.888 22.1458 10.4193 21.7031 9.91406C21.2604 9.40365 20.724 8.89583 20.0938 8.39062C19.4688 7.88542 18.7552 7.42448 17.9531 7.00781C17.1562 6.58594 16.2865 6.2474 15.3438 5.99219C14.401 5.73698 13.3958 5.60938 12.3281 5.60938C11.2812 5.60938 10.2865 5.73698 9.34375 5.99219C8.40625 6.2474 7.53906 6.58594 6.74219 7.00781C5.94531 7.42448 5.22917 7.88542 4.59375 8.39062C3.95833 8.89583 3.41667 9.40365 2.96875 9.91406C2.52604 10.4193 2.1849 10.888 1.94531 11.3203C1.71094 11.7526 1.59375 12.1016 1.59375 12.3672C1.59375 12.6328 1.71094 12.9844 1.94531 13.4219C2.1849 13.8542 2.52604 14.3255 2.96875 14.8359C3.41667 15.3411 3.95573 15.8464 4.58594 16.3516C5.22135 16.8568 5.9375 17.3203 6.73438 17.7422C7.53125 18.1589 8.39844 18.4948 9.33594 18.75C10.2786 19.0052 11.276 19.1328 12.3281 19.1328ZM12.3281 17.625C11.4948 17.625 10.6953 17.5234 9.92969 17.3203C9.16927 17.1172 8.45573 16.8464 7.78906 16.5078C7.1224 16.1693 6.51823 15.8021 5.97656 15.4062C5.4401 15.0052 4.97656 14.6094 4.58594 14.2188C4.19531 13.8229 3.89323 13.4609 3.67969 13.1328C3.47135 12.8047 3.36719 12.5495 3.36719 12.3672C3.36719 12.2161 3.47135 11.9844 3.67969 11.6719C3.89323 11.3594 4.19531 11.0052 4.58594 10.6094C4.97656 10.2083 5.4401 9.80469 5.97656 9.39844C6.51823 8.99219 7.1224 8.61719 7.78906 8.27344C8.45573 7.92448 9.16927 7.64323 9.92969 7.42969C10.6953 7.21615 11.4948 7.10938 12.3281 7.10938C13.1615 7.10938 13.9583 7.21615 14.7188 7.42969C15.4792 7.64323 16.1927 7.92448 16.8594 8.27344C17.526 8.61719 18.1302 8.99219 18.6719 9.39844C19.2135 9.80469 19.6797 10.2083 20.0703 10.6094C20.4609 11.0052 20.7604 11.3594 20.9688 11.6719C21.1823 11.9844 21.2891 12.2161 21.2891 12.3672C21.2891 12.5495 21.1823 12.8047 20.9688 13.1328C20.7604 13.4609 20.4609 13.8229 20.0703 14.2188C19.6797 14.6094 19.2135 15.0052 18.6719 15.4062C18.1302 15.8021 17.526 16.1693 16.8594 16.5078C16.1927 16.8464 15.4792 17.1172 14.7188 17.3203C13.9583 17.5234 13.1615 17.625 12.3281 17.625ZM12.3359 16.5781C12.9141 16.5781 13.4583 16.4688 13.9688 16.25C14.4792 16.026 14.9271 15.7214 15.3125 15.3359C15.6979 14.9453 16 14.4974 16.2188 13.9922C16.4375 13.4818 16.5469 12.9401 16.5469 12.3672C16.5469 11.7839 16.4375 11.237 16.2188 10.7266C16 10.2161 15.6979 9.77083 15.3125 9.39062C14.9271 9.00521 14.4792 8.70573 13.9688 8.49219C13.4583 8.27344 12.9141 8.16406 12.3359 8.16406C11.7422 8.16406 11.1901 8.27344 10.6797 8.49219C10.1693 8.70573 9.72135 9.00521 9.33594 9.39062C8.95052 9.77083 8.64844 10.2161 8.42969 10.7266C8.21615 11.237 8.10938 11.7839 8.10938 12.3672C8.10938 12.9401 8.21875 13.4818 8.4375 13.9922C8.65625 14.4974 8.95833 14.9453 9.34375 15.3359C9.72917 15.7214 10.1745 16.026 10.6797 16.25C11.1901 16.4688 11.7422 16.5781 12.3359 16.5781ZM12.3281 13.7344C11.9479 13.7344 11.625 13.599 11.3594 13.3281C11.0938 13.0573 10.9609 12.737 10.9609 12.3672C10.9609 11.9922 11.0938 11.6719 11.3594 11.4062C11.625 11.1406 11.9479 11.0078 12.3281 11.0078C12.7031 11.0078 13.0234 11.1406 13.2891 11.4062C13.5599 11.6719 13.6953 11.9922 13.6953 12.3672C13.6953 12.737 13.5599 13.0573 13.2891 13.3281C13.0234 13.599 12.7031 13.7344 12.3281 13.7344Z" fill="#7474FF"/>
</svg>
